<svg width="24" height="24" viewBox="0 0 24 24" fill="none" xmlns="http://www.w3.org/2000/svg">
<path d="M11.8667 12.7764C14.4629 12.7764 16.5674 10.6718 16.5674 8.07571C16.5674 5.47958 14.4629 3.375 11.8667 3.375C9.2706 3.375 7.16602 5.47958 7.16602 8.07571C7.16602 10.6718 9.2706 12.7764 11.8667 12.7764Z" stroke="black" stroke-width="1.5" stroke-linecap="round" stroke-linejoin="round"/>
<path d="M5.45139 19.3977C5.34054 18.7595 5.38632 18.0981 5.38632 17.4535C5.38632 15.0241 7.35572 13.0547 9.7851 13.0547H14.0685C15.2507 13.0547 16.3241 13.5211 17.1145 14.28" stroke="black" stroke-width="1.5" stroke-linecap="round" stroke-linejoin="round"/>
<path d="M13.9688 18.6388H18.9233M13.9688 18.6388L15.9665 16.6484M13.9688 18.6388L15.9665 20.628" stroke="black" stroke-width="1.5" stroke-linecap="round" stroke-linejoin="round"/>
</svg>
